<?xml version="1.0" encoding="UTF-8"?>
<svg id="Calque_1" data-name="Calque 1" xmlns="http://www.w3.org/2000/svg" xmlns:xlink="http://www.w3.org/1999/xlink" viewBox="0 0 1024 1024">
  <defs>
    <style>
      .cls-1 {
        clip-path: url(#clippath-4);
      }

      .cls-2 {
        fill: #cb561f;
      }

      .cls-3 {
        fill: #fff;
      }

      .cls-4 {
        fill: none;
      }

      .cls-5 {
        clip-path: url(#clippath-1);
      }

      .cls-6 {
        clip-path: url(#clippath-5);
      }

      .cls-7 {
        clip-path: url(#clippath-3);
      }

      .cls-8 {
        clip-path: url(#clippath-2);
      }

      .cls-9 {
        clip-path: url(#clippath);
      }
    </style>
    <clipPath id="clippath">
      <polygon class="cls-4" points="103.58 54.14 103.58 54.14 920.42 54.14 920.42 482.65 103.58 482.65 103.58 54.14"/>
    </clipPath>
    <clipPath id="clippath-1">
      <rect class="cls-4" x="103.58" y="54.14" width="408.42" height="428.51"/>
    </clipPath>
    <clipPath id="clippath-2">
      <rect class="cls-4" x="512" y="54.14" width="408.42" height="428.51"/>
    </clipPath>
    <clipPath id="clippath-3">
      <polygon class="cls-4" points="103.58 969.86 103.58 969.86 920.42 969.86 920.42 541.35 103.58 541.35 103.58 969.86"/>
    </clipPath>
    <clipPath id="clippath-4">
      <rect class="cls-4" x="103.58" y="541.35" width="408.42" height="428.51"/>
    </clipPath>
    <clipPath id="clippath-5">
      <rect class="cls-4" x="512" y="541.35" width="408.42" height="428.51"/>
    </clipPath>
  </defs>
  <circle class="cls-2" cx="512" cy="512" r="512"/>
  <circle class="cls-3" cx="512" cy="512" r="85"/>
  <circle class="cls-2" cx="512" cy="512" r="30"/>
  <g>
    <g id="_Répétition_miroir_" data-name="&amp;lt;Répétition miroir&amp;gt;">
      <g class="cls-9">
        <g>
          <g id="_Répétition_miroir_-2" data-name="&amp;lt;Répétition miroir&amp;gt;">
            <g class="cls-5">
              <path class="cls-3" d="M512,229.43h-.28c-1.13.06-2.33,4.17-2.56,5.42-4.24,23.2-5.37,45.4-11.98,68.82-18.84,66.76-80.01,149.69-148.75,169.88-81.02,23.79-166.41,1.03-214.87-69.62-45.52-66.38-45.45-170.14,44.18-196.65,14.95-4.42,44.61-8.63,59.68-6.2,3.83.62,20.35,13.55,22.25,7.34,1.01-3.29,0-18.94,0-23.9,0-7.09,14.65-33.43,19.9-39.27,18.99-21.12,58.78-10.85,81.97-2.28,21.43,7.91,31.96,16.03,44.27,35.39,8.61,13.55,26.11,46.2,10.3,59.04-18.92,15.37-23.61-17.73-27.83-29-8.93-23.87-20.81-33.74-44.95-41.54-26.47-8.56-45.73-11.5-53.74,20.27-8.13,32.21,5.53,46.19,20.62,70.89,5.34,8.74,15.72,24.51,2.23,31.62-8.52,4.49-16.77,1.17-22.52-5.64-17.93-21.25-22.08-38.94-52.22-50.19-30.13-11.25-81.96,4.37-95.44,34.73-30.11,67.81,16.51,146.5,80.23,173.94,99.2,42.72,191.96-24.25,235.05-111.29,18.79-37.94,23.03-80.43,29.39-121.96,6.72-43.85,7.8-76.53,6.9-120.95-.2-10.14-1.03-19.26,7.09-29.53,3.84-4.86,6.15-4.64,10.93-4.57l.15,175.26Z"/>
            </g>
          </g>
          <g id="_Répétition_miroir_-3" data-name="&amp;lt;Répétition miroir&amp;gt;">
            <g class="cls-8">
              <path class="cls-3" d="M512,229.43h.28c1.13.06,2.33,4.17,2.56,5.42,4.24,23.2,5.37,45.4,11.98,68.82,18.84,66.76,80.01,149.69,148.75,169.88,81.02,23.79,166.41,1.03,214.87-69.62,45.52-66.38,45.45-170.14-44.18-196.65-14.95-4.42-44.61-8.63-59.68-6.2-3.83.62-20.35,13.55-22.25,7.34-1.01-3.29,0-18.94,0-23.9,0-7.09-14.65-33.43-19.9-39.27-18.99-21.12-58.78-10.85-81.97-2.28-21.43,7.91-31.96,16.03-44.27,35.39-8.61,13.55-26.11,46.2-10.3,59.04,18.92,15.37,23.61-17.73,27.83-29,8.93-23.87,20.81-33.74,44.95-41.54,26.47-8.56,45.73-11.5,53.74,20.27,8.13,32.21-5.53,46.19-20.62,70.89-5.34,8.74-15.72,24.51-2.23,31.62,8.52,4.49,16.77,1.17,22.52-5.64,17.93-21.25,22.08-38.94,52.22-50.19,30.13-11.25,81.96,4.37,95.44,34.73,30.11,67.81-16.51,146.5-80.23,173.94-99.2,42.72-191.96-24.25-235.05-111.29-18.79-37.94-23.03-80.43-29.39-121.96-6.72-43.85-7.8-76.53-6.9-120.95.2-10.14,1.03-19.26-7.09-29.53-3.84-4.86-6.15-4.64-10.93-4.57l-.15,175.26Z"/>
            </g>
          </g>
        </g>
      </g>
    </g>
    <g id="_Répétition_miroir_-4" data-name="&amp;lt;Répétition miroir&amp;gt;">
      <g class="cls-7">
        <g>
          <g id="_Répétition_miroir_-5" data-name="&amp;lt;Répétition miroir&amp;gt;">
            <g class="cls-1">
              <path class="cls-3" d="M512,794.57h-.28c-1.13-.06-2.33-4.17-2.56-5.42-4.24-23.2-5.37-45.4-11.98-68.82-18.84-66.76-80.01-149.69-148.75-169.88-81.02-23.79-166.41-1.03-214.87,69.62-45.52,66.38-45.45,170.14,44.18,196.65,14.95,4.42,44.61,8.63,59.68,6.2,3.83-.62,20.35-13.55,22.25-7.34,1.01,3.29,0,18.94,0,23.9,0,7.09,14.65,33.43,19.9,39.27,18.99,21.12,58.78,10.85,81.97,2.28,21.43-7.91,31.96-16.03,44.27-35.39,8.61-13.55,26.11-46.2,10.3-59.04-18.92-15.37-23.61,17.73-27.83,29-8.93,23.87-20.81,33.74-44.95,41.54-26.47,8.56-45.73,11.5-53.74-20.27-8.13-32.21,5.53-46.19,20.62-70.89,5.34-8.74,15.72-24.51,2.23-31.62-8.52-4.49-16.77-1.17-22.52,5.64-17.93,21.25-22.08,38.94-52.22,50.19-30.13,11.25-81.96-4.37-95.44-34.73-30.11-67.81,16.51-146.5,80.23-173.94,99.2-42.72,191.96,24.25,235.05,111.29,18.79,37.94,23.03,80.43,29.39,121.96,6.72,43.85,7.8,76.53,6.9,120.95-.2,10.14-1.03,19.26,7.09,29.53,3.84,4.86,6.15,4.64,10.93,4.57l.15-175.26Z"/>
            </g>
          </g>
          <g id="_Répétition_miroir_-6" data-name="&amp;lt;Répétition miroir&amp;gt;">
            <g class="cls-6">
              <path class="cls-3" d="M512,794.57h.28c1.13-.06,2.33-4.17,2.56-5.42,4.24-23.2,5.37-45.4,11.98-68.82,18.84-66.76,80.01-149.69,148.75-169.88,81.02-23.79,166.41-1.03,214.87,69.62,45.52,66.38,45.45,170.14-44.18,196.65-14.95,4.42-44.61,8.63-59.68,6.2-3.83-.62-20.35-13.55-22.25-7.34-1.01,3.29,0,18.94,0,23.9,0,7.09-14.65,33.43-19.9,39.27-18.99,21.12-58.78,10.85-81.97,2.28-21.43-7.91-31.96-16.03-44.27-35.39-8.61-13.55-26.11-46.2-10.3-59.04,18.92-15.37,23.61,17.73,27.83,29,8.93,23.87,20.81,33.74,44.95,41.54,26.47,8.56,45.73,11.5,53.74-20.27,8.13-32.21-5.53-46.19-20.62-70.89-5.34-8.74-15.72-24.51-2.23-31.62,8.52-4.49,16.77-1.17,22.52,5.64,17.93,21.25,22.08,38.94,52.22,50.19,30.13,11.25,81.96-4.37,95.44-34.73,30.11-67.81-16.51-146.5-80.23-173.94-99.2-42.72-191.96,24.25-235.05,111.29-18.79,37.94-23.03,80.43-29.39,121.96-6.72,43.85-7.8,76.53-6.9,120.95.2,10.14,1.03,19.26-7.09,29.53-3.84,4.86-6.15,4.64-10.93,4.57l-.15-175.26Z"/>
            </g>
          </g>
        </g>
      </g>
    </g>
  </g>
</svg>